<mxfile host="app.diagrams.net" modified="2020-11-29T14:12:29.319Z" agent="5.0 (Macintosh; Intel Mac OS X 11_0_1) AppleWebKit/537.36 (KHTML, like Gecko) Chrome/87.0.4280.67 Safari/537.36" etag="jA7NobSWRzBg1PFBTBBZ" version="13.10.4" type="github" pages="3">
  <diagram id="C5RBs43oDa-KdzZeNtuy" name="9期任务分配">
    <mxGraphModel dx="1426" dy="653" grid="1" gridSize="10" guides="1" tooltips="1" connect="1" arrows="1" fold="1" page="1" pageScale="1" pageWidth="827" pageHeight="1169" math="0" shadow="0">
      <root>
        <mxCell id="WIyWlLk6GJQsqaUBKTNV-0" />
        <mxCell id="WIyWlLk6GJQsqaUBKTNV-1" parent="WIyWlLk6GJQsqaUBKTNV-0" />
        <mxCell id="CXCkX7W44gw4xvGZ3JvS-0" value="9期任务分配" style="rounded=0;whiteSpace=wrap;html=1;" vertex="1" parent="WIyWlLk6GJQsqaUBKTNV-1">
          <mxGeometry x="40" y="280" width="120" height="60" as="geometry" />
        </mxCell>
        <mxCell id="CXCkX7W44gw4xvGZ3JvS-1" value="姜欣（凭证）" style="rounded=0;whiteSpace=wrap;html=1;" vertex="1" parent="WIyWlLk6GJQsqaUBKTNV-1">
          <mxGeometry x="190" y="170" width="120" height="60" as="geometry" />
        </mxCell>
        <mxCell id="CXCkX7W44gw4xvGZ3JvS-2" value="樊佳佳（尾箱）" style="rounded=0;whiteSpace=wrap;html=1;" vertex="1" parent="WIyWlLk6GJQsqaUBKTNV-1">
          <mxGeometry x="190" y="280" width="120" height="60" as="geometry" />
        </mxCell>
        <mxCell id="CXCkX7W44gw4xvGZ3JvS-3" value="姚杨（产品结构/店铺运营/规程/限额/）" style="rounded=0;whiteSpace=wrap;html=1;" vertex="1" parent="WIyWlLk6GJQsqaUBKTNV-1">
          <mxGeometry x="190" y="390" width="120" height="60" as="geometry" />
        </mxCell>
      </root>
    </mxGraphModel>
  </diagram>
  <diagram id="V0uaXb0H3q6-p6gsk3-E" name="产品结构任务分解">
    <mxGraphModel dx="1426" dy="653" grid="1" gridSize="10" guides="1" tooltips="1" connect="1" arrows="1" fold="1" page="1" pageScale="1" pageWidth="827" pageHeight="1169" math="0" shadow="0">
      <root>
        <mxCell id="0pIrAnjZzNuq1DJO3hQ5-0" />
        <mxCell id="0pIrAnjZzNuq1DJO3hQ5-1" parent="0pIrAnjZzNuq1DJO3hQ5-0" />
        <mxCell id="0pIrAnjZzNuq1DJO3hQ5-2" value="产品结构" style="rounded=0;whiteSpace=wrap;html=1;" vertex="1" parent="0pIrAnjZzNuq1DJO3hQ5-1">
          <mxGeometry x="360" y="70" width="120" height="60" as="geometry" />
        </mxCell>
        <mxCell id="0pIrAnjZzNuq1DJO3hQ5-3" value="产品功能" style="rounded=0;whiteSpace=wrap;html=1;" vertex="1" parent="0pIrAnjZzNuq1DJO3hQ5-1">
          <mxGeometry x="30" y="160" width="120" height="60" as="geometry" />
        </mxCell>
        <mxCell id="0pIrAnjZzNuq1DJO3hQ5-4" value="产品组件" style="rounded=0;whiteSpace=wrap;html=1;" vertex="1" parent="0pIrAnjZzNuq1DJO3hQ5-1">
          <mxGeometry x="190" y="160" width="120" height="60" as="geometry" />
        </mxCell>
        <mxCell id="0pIrAnjZzNuq1DJO3hQ5-5" value="可售产品" style="rounded=0;whiteSpace=wrap;html=1;" vertex="1" parent="0pIrAnjZzNuq1DJO3hQ5-1">
          <mxGeometry x="490" y="160" width="120" height="60" as="geometry" />
        </mxCell>
        <mxCell id="0pIrAnjZzNuq1DJO3hQ5-6" value="基础产品" style="rounded=0;whiteSpace=wrap;html=1;" vertex="1" parent="0pIrAnjZzNuq1DJO3hQ5-1">
          <mxGeometry x="350" y="160" width="120" height="60" as="geometry" />
        </mxCell>
        <mxCell id="5605t3WwzHuLp_ibKCAm-0" value="组合产品模版" style="rounded=0;whiteSpace=wrap;html=1;" vertex="1" parent="0pIrAnjZzNuq1DJO3hQ5-1">
          <mxGeometry x="630" y="160" width="120" height="60" as="geometry" />
        </mxCell>
        <mxCell id="5605t3WwzHuLp_ibKCAm-1" value="组合产品" style="rounded=0;whiteSpace=wrap;html=1;" vertex="1" parent="0pIrAnjZzNuq1DJO3hQ5-1">
          <mxGeometry x="770" y="160" width="120" height="60" as="geometry" />
        </mxCell>
        <mxCell id="LmY-pH5KbT1rdkjxtcnh-0" value="产品关系" style="rounded=0;whiteSpace=wrap;html=1;" vertex="1" parent="0pIrAnjZzNuq1DJO3hQ5-1">
          <mxGeometry x="920" y="160" width="120" height="60" as="geometry" />
        </mxCell>
        <mxCell id="LmY-pH5KbT1rdkjxtcnh-1" value="产品范围" style="rounded=0;whiteSpace=wrap;html=1;" vertex="1" parent="0pIrAnjZzNuq1DJO3hQ5-1">
          <mxGeometry x="1060" y="160" width="120" height="60" as="geometry" />
        </mxCell>
      </root>
    </mxGraphModel>
  </diagram>
  <diagram id="ICNLRPC28Njozh4dEFOz" name="店铺运营">
    <mxGraphModel dx="1426" dy="653" grid="1" gridSize="10" guides="1" tooltips="1" connect="1" arrows="1" fold="1" page="1" pageScale="1" pageWidth="827" pageHeight="1169" math="0" shadow="0">
      <root>
        <mxCell id="_Gaqf1iBj6MrXA0RNFG4-0" />
        <mxCell id="_Gaqf1iBj6MrXA0RNFG4-1" parent="_Gaqf1iBj6MrXA0RNFG4-0" />
      </root>
    </mxGraphModel>
  </diagram>
</mxfile>
